<svg width="184" height="120" viewBox="0 0 184 120" fill="none" xmlns="http://www.w3.org/2000/svg">
<g clip-path="url(#clip0_2654_42)">
<path d="M170.07 0C165.365 0 161.582 3.81543 161.582 8.56145V74.4942L103.37 0.186119L62.963 51.6946L36.348 17.8674C27.5377 6.70029 14.161 0.186119 0 0.186119V120C12.4081 120 22.4176 109.856 22.4176 97.3865V32.85L58.9499 83.2883C59.7802 84.4514 61.1179 85.1026 62.502 85.1026C63.8857 85.1026 65.1774 84.4514 66.0077 83.3345L103.37 33.036L107.614 39.2245L169.562 119.953L170.07 120H184V0H170.07Z" fill="white"/>
<path d="M80.9531 119.953C93.3616 119.953 103.371 114.322 103.371 107.343V53.043L80.9531 82.1702V119.953Z" fill="white"/>
</g>
<defs>
<clipPath id="clip0_2654_42">
<rect width="184" height="120" fill="white"/>
</clipPath>
</defs>
</svg>
