<svg width="400" height="260" viewBox="0 0 400 260" fill="none" xmlns="http://www.w3.org/2000/svg">
<g clip-path="url(#clip0_2515_18)">
<path d="M369.717 0C359.489 0 351.266 8.26677 351.266 18.5498V161.404L224.718 0.403257L136.876 112.005L79.0173 38.7127C59.8646 14.5173 30.7847 0.403257 0 0.403257V260C26.9742 260 48.734 238.022 48.734 211.004V71.1749L128.152 180.458C129.957 182.978 132.865 184.389 135.874 184.389C138.882 184.389 141.69 182.978 143.495 180.558L224.718 71.5781L233.943 84.9864L368.614 259.899L369.717 260H400V0H369.717Z" fill="white"/>
<path d="M175.984 259.901C202.959 259.901 224.718 247.702 224.718 232.58V114.93L175.984 178.039V259.901Z" fill="white"/>
</g>
<defs>
<clipPath id="clip0_2515_18">
<rect width="400" height="260" fill="white"/>
</clipPath>
</defs>
</svg>
