<svg width="399" height="258" viewBox="0 0 399 258" fill="none" xmlns="http://www.w3.org/2000/svg">
<g clip-path="url(#clip0_1252_1415)">
<path d="M368.7 0C358.5 0 350.3 8.2 350.3 18.4V160.1L224.1 0.4L136.5 111.1L78.8 38.4C59.7 14.4 30.7 0.4 0 0.4V257.9C26.9 257.9 48.6 236.1 48.6 209.3V70.6L127.8 179C129.6 181.5 132.5 182.9 135.5 182.9C138.5 182.9 141.3 181.5 143.1 179.1L224.1 71L233.3 84.3L367.6 257.8L368.7 257.9H398.9V0H368.7Z" fill="black"/>
<path d="M175.5 257.8C202.4 257.8 224.1 245.7 224.1 230.7V114L175.5 176.6V257.8Z" fill="black"/>
</g>
<defs>
<clipPath id="clip0_1252_1415">
<rect width="398.9" height="257.9" fill="white"/>
</clipPath>
</defs>
</svg>
