<svg width="200" height="130" viewBox="0 0 200 130" fill="none" xmlns="http://www.w3.org/2000/svg">
<g clip-path="url(#clip0_2654_42)">
<path d="M184.859 0C179.745 0 175.633 4.13339 175.633 9.2749V80.702L112.359 0.201629L68.438 56.0025L39.5087 19.3563C29.9323 7.25865 15.3924 0.201629 0 0.201629V130C13.4871 130 24.367 119.011 24.367 105.502V35.5874L64.076 90.229C64.9785 91.489 66.4325 92.1945 67.937 92.1945C69.441 92.1945 70.845 91.489 71.7475 90.279L112.359 35.7891L116.971 42.4932L184.307 129.949L184.859 130H200V0H184.859Z" fill="white"/>
<path d="M87.9927 129.95C101.48 129.95 112.36 123.851 112.36 116.29V57.4648L87.9927 89.0193V129.95Z" fill="white"/>
</g>
<defs>
<clipPath id="clip0_2654_42">
<rect width="200" height="130" fill="white"/>
</clipPath>
</defs>
</svg>
